<?xml version="1.0" encoding="UTF-8"?>
<svg id="Layer_1" data-name="Layer 1" xmlns="http://www.w3.org/2000/svg" viewBox="0 0 1085 1085">
  <defs>
    <style>
      .cls-1 {
        fill: #fff;
      }

      .cls-2 {
        fill: #4ea8ff;
      }
    </style>
  </defs>
  <path class="cls-1" d="M864.95,538.58c.02,1.31.05,2.61.05,3.92,0,86.14-33.55,167.13-94.46,228.04s-141.9,94.46-228.04,94.46-167.13-33.55-228.04-94.46-94.46-141.9-94.46-228.04,33.55-167.13,94.46-228.04c60.91-60.91,141.9-94.46,228.04-94.46,44.46,0,87.54,8.96,127.21,25.98l126.01-183.38c-13.67-7.21-27.68-13.86-42.01-19.92C686.75,14.36,615.69,0,542.5,0s-144.25,14.36-211.2,42.68c-64.61,27.33-122.62,66.43-172.41,116.22-49.79,49.79-88.89,107.79-116.22,172.41C14.36,398.25,0,469.31,0,542.5s14.36,144.25,42.68,211.2c27.33,64.61,66.43,122.62,116.22,172.41,49.79,49.79,107.79,88.89,172.41,116.22,66.95,28.32,138.01,42.68,211.2,42.68s144.25-14.36,211.2-42.68c40.84-17.27,79.03-39.25,114.18-65.66v81.22h217.09v-511.46c0-1.31.02-2.61.02-3.92s-.01-2.61-.02-3.92h-220.02Z"/>
  <path class="cls-2" d="M754.8,299.74c5.38,4.72,10.63,9.61,15.74,14.71,59.99,59.99,93.41,139.45,94.41,224.12h220.02c-.5-71.81-14.84-141.52-42.65-207.28-27.33-64.61-66.43-122.62-116.22-172.41-14.69-14.69-30.1-28.44-46.18-41.24l-125.12,182.09Z"/>
</svg>