<?xml version="1.0" encoding="UTF-8"?>
<svg id="Layer_1" data-name="Layer 1" xmlns="http://www.w3.org/2000/svg" xmlns:xlink="http://www.w3.org/1999/xlink" viewBox="0 0 836.83 200">
  <defs>
    <style>
      .cls-1 {
        fill: #1e2a78;
      }

      .cls-2 {
        fill: url(#linear-gradient);
      }

      .cls-3 {
        fill: #4ea8ff;
      }
    </style>
    <linearGradient id="linear-gradient" x1="40.38" y1="52.48" x2="178.66" y2="190.76" gradientTransform="translate(0 238.89) scale(1 -1)" gradientUnits="userSpaceOnUse">
      <stop offset="0" stop-color="#212257"/>
      <stop offset=".44" stop-color="#1c2b6c"/>
      <stop offset="1" stop-color="#163b8d"/>
    </linearGradient>
  </defs>
  <path class="cls-1" d="M287.27,51.17c14.07,0,27.93,4.83,38.01,19.11v-16.8h20.37v105h-20.37v-16.8c-10.08,14.28-23.94,19.11-38.01,19.11-31.5,0-52.08-24.78-52.08-54.81s20.58-54.81,52.08-54.81ZM289.79,69.23c-21.84,0-34.23,16.8-34.23,36.75s12.39,36.75,34.23,36.75,35.7-15.54,35.91-36.75c-.21-21.21-14.7-36.75-35.91-36.75Z"/>
  <path class="cls-1" d="M421.88,158.49h-23.1l-40.53-105h21.42l30.66,82.53,30.66-82.53h21.42l-40.53,105Z"/>
  <path class="cls-1" d="M515.54,51.17c14.07,0,27.93,4.83,38.01,19.11v-16.8h20.37v105h-20.37v-16.8c-10.08,14.28-23.94,19.11-38.01,19.11-31.5,0-52.08-24.78-52.08-54.81s20.58-54.81,52.08-54.81ZM518.06,69.23c-21.84,0-34.23,16.8-34.23,36.75s12.39,36.75,34.23,36.75,35.7-15.54,35.91-36.75c-.21-21.21-14.7-36.75-35.91-36.75Z"/>
  <path class="cls-1" d="M608.56,5.39c7.98,0,14.28,6.3,14.28,14.28s-6.3,14.07-14.28,14.07-14.07-6.09-14.07-14.07,6.09-14.28,14.07-14.28ZM618.85,53.48h-20.37v105h20.37V53.48Z"/>
  <path class="cls-1" d="M664.42,158.49h-20.37V6.65h20.37v151.83Z"/>
  <path class="cls-1" d="M699.7,5.39c7.98,0,14.28,6.3,14.28,14.28s-6.3,14.07-14.28,14.07-14.07-6.09-14.07-14.07,6.09-14.28,14.07-14.28ZM709.99,53.48h-20.37v105h20.37V53.48Z"/>
  <path class="cls-1" d="M781.6,51.17c30.45,0,55.23,24.78,55.23,54.81s-24.78,54.81-55.23,54.81-55.02-24.36-55.02-54.81,24.78-54.81,55.02-54.81ZM781.6,142.74c19.32,0,34.86-16.38,34.86-36.54s-15.54-36.96-34.86-36.96-34.65,16.59-34.65,36.96,15.54,36.54,34.65,36.54Z"/>
  <path class="cls-2" d="M159.44,99.28c0,.24,0,.48,0,.72,0,15.88-6.18,30.81-17.41,42.04-11.23,11.23-26.16,17.41-42.04,17.41s-30.81-6.18-42.04-17.41c-11.23-11.23-17.41-26.16-17.41-42.04s6.18-30.81,17.41-42.04c11.23-11.23,26.16-17.41,42.04-17.41,8.2,0,16.14,1.65,23.45,4.79l23.23-33.8c-2.52-1.33-5.1-2.55-7.74-3.67C126.59,2.65,113.49,0,100,0s-26.59,2.65-38.93,7.87c-11.91,5.04-22.6,12.25-31.78,21.42-9.18,9.18-16.39,19.87-21.42,31.78C2.65,73.41,0,86.51,0,100s2.65,26.59,7.87,38.93c5.04,11.91,12.25,22.6,21.42,31.78,9.18,9.18,19.87,16.39,31.78,21.42,12.34,5.22,25.44,7.87,38.93,7.87s26.59-2.65,38.93-7.87c7.53-3.18,14.57-7.24,21.05-12.1v14.97h40.02v-94.28c0-.24,0-.48,0-.72s0-.48,0-.72h-40.56Z"/>
  <path class="cls-3" d="M139.13,55.25c.99.87,1.96,1.77,2.9,2.71,11.06,11.06,17.22,25.71,17.4,41.31h40.56c-.09-13.24-2.74-26.09-7.86-38.21-5.04-11.91-12.25-22.6-21.42-31.78-2.71-2.71-5.55-5.24-8.51-7.6l-23.06,33.56h0Z"/>
</svg>